<?xml version="1.0" encoding="UTF-8" standalone="no"?><!-- Generator: Gravit.io --><svg xmlns="http://www.w3.org/2000/svg" xmlns:xlink="http://www.w3.org/1999/xlink" style="isolation:isolate" viewBox="758 262.75 90 42.627" width="90pt" height="42.627pt"><defs><clipPath id="_clipPath_aQPuBbTEGJBhXG1k76M2x3ozlBh5imyM"><rect x="758" y="262.75" width="90" height="42.627"/></clipPath></defs><g clip-path="url(#_clipPath_aQPuBbTEGJBhXG1k76M2x3ozlBh5imyM)"><g/><g><g><g><g><defs><filter id="QfYgVCiLECtmvXRXEi3j0vf1YtP7lmEn" x="-200%" y="-200%" width="400%" height="400%" filterUnits="objectBoundingBox" color-interpolation-filters="sRGB"><feGaussianBlur xmlns="http://www.w3.org/2000/svg" in="SourceGraphic" stdDeviation="0"/><feOffset xmlns="http://www.w3.org/2000/svg" dx="0" dy="0" result="pf_100_offsetBlur"/><feFlood xmlns="http://www.w3.org/2000/svg" flood-color="#000000" flood-opacity="0.32"/><feComposite xmlns="http://www.w3.org/2000/svg" in2="pf_100_offsetBlur" operator="in" result="pf_100_dropShadow"/><feBlend xmlns="http://www.w3.org/2000/svg" in="SourceGraphic" in2="pf_100_dropShadow" mode="normal"/></filter></defs><g filter="url(#QfYgVCiLECtmvXRXEi3j0vf1YtP7lmEn)"><path d=" M 829.164 271.302 L 829.164 271.302 L 829.164 272.313 L 825.781 272.313 L 825.781 271.302 L 825.781 271.302 Q 825.781 270.888 825.577 270.589 L 825.577 270.589 L 825.577 270.589 Q 825.374 270.29 825.092 270.29 L 825.092 270.29 L 814.755 270.29 L 814.755 270.29 Q 814.473 270.29 814.269 270.589 L 814.269 270.589 L 814.269 270.589 Q 814.066 270.888 814.066 271.302 L 814.066 271.302 L 814.066 275.165 L 814.066 275.165 Q 814.066 275.579 814.269 275.878 L 814.269 275.878 L 814.269 275.878 Q 814.473 276.177 814.755 276.177 L 814.755 276.177 L 825.092 276.177 L 825.092 276.177 Q 826.783 276.177 827.974 277.925 L 827.974 277.925 L 827.974 277.925 Q 829.164 279.673 829.164 282.157 L 829.164 282.157 L 829.164 286.02 L 829.164 286.02 Q 829.164 288.504 827.974 290.252 L 827.974 290.252 L 827.974 290.252 Q 826.783 292 825.092 292 L 825.092 292 L 814.755 292 L 814.755 292 Q 813.063 292 811.873 290.252 L 811.873 290.252 L 811.873 290.252 Q 810.683 288.504 810.683 286.02 L 810.683 286.02 L 810.683 285.009 L 814.066 285.009 L 814.066 286.02 L 814.066 286.02 Q 814.066 286.434 814.269 286.733 L 814.269 286.733 L 814.269 286.733 Q 814.473 287.032 814.755 287.032 L 814.755 287.032 L 825.092 287.032 L 825.092 287.032 Q 825.374 287.032 825.577 286.733 L 825.577 286.733 L 825.577 286.733 Q 825.781 286.434 825.781 286.02 L 825.781 286.02 L 825.781 282.157 L 825.781 282.157 Q 825.781 281.743 825.577 281.444 L 825.577 281.444 L 825.577 281.444 Q 825.374 281.145 825.092 281.145 L 825.092 281.145 L 814.755 281.145 L 814.755 281.145 Q 813.063 281.145 811.873 279.397 L 811.873 279.397 L 811.873 279.397 Q 810.683 277.649 810.683 275.165 L 810.683 275.165 L 810.683 271.302 L 810.683 271.302 Q 810.683 268.818 811.873 267.07 L 811.873 267.07 L 811.873 267.07 Q 813.063 265.322 814.755 265.322 L 814.755 265.322 L 825.092 265.322 L 825.092 265.322 Q 826.783 265.322 827.974 267.07 L 827.974 267.07 L 827.974 267.07 Q 829.164 268.818 829.164 271.302 Z  M 848 280.961 L 835.126 291.908 L 835.126 286.158 L 844.178 278.477 L 835.126 270.842 L 835.126 265.092 L 848 275.993 L 848 280.961 Z  M 771.058 270.75 L 762.006 278.385 L 771.058 286.066 L 771.058 291.816 L 758.184 280.869 L 758.184 275.901 L 771.058 265 L 771.058 270.75 Z  M 777.145 265.322 L 791.554 265.322 L 791.554 265.322 Q 793.246 265.322 794.436 267.07 L 794.436 267.07 L 794.436 267.07 Q 795.626 268.818 795.626 271.302 L 795.626 271.302 L 795.626 292 L 792.243 292 L 792.243 271.302 L 792.243 271.302 Q 792.243 270.888 792.04 270.589 L 792.04 270.589 L 792.04 270.589 Q 791.836 270.29 791.554 270.29 L 791.554 270.29 L 781.217 270.29 L 781.217 270.29 Q 780.936 270.29 780.732 270.589 L 780.732 270.589 L 780.732 270.589 Q 780.528 270.888 780.528 271.302 L 780.528 271.302 L 780.528 292 L 777.145 292 L 777.145 265.322 Z  M 801.557 287.032 L 804.94 287.032 L 804.94 292 L 801.557 292 L 801.557 287.032 Z " fill="rgb(0,0,0)"/></g></g></g></g></g></g></svg>